<svg width="1200" height="700" viewBox="0 0 1200 700" fill="none" xmlns="http://www.w3.org/2000/svg">
  <rect width="1200" height="700" rx="34" fill="#0B1018"/>
  <rect x="60" y="60" width="1080" height="580" rx="26" fill="#151D2B" stroke="#2AFAC3" stroke-opacity="0.34"/>
  <rect x="110" y="130" width="300" height="440" rx="20" fill="#0F1623"/>
  <rect x="440" y="130" width="650" height="440" rx="20" fill="#0F1623"/>
  <rect x="470" y="170" width="500" height="26" rx="13" fill="#2AFAC3"/>
  <rect x="470" y="228" width="560" height="14" rx="7" fill="#CCFFF4" fill-opacity="0.65"/>
  <rect x="470" y="262" width="520" height="14" rx="7" fill="#CCFFF4" fill-opacity="0.55"/>
  <rect x="470" y="296" width="570" height="14" rx="7" fill="#CCFFF4" fill-opacity="0.45"/>
  <rect x="470" y="342" width="450" height="80" rx="14" fill="#192334"/>
  <rect x="470" y="438" width="450" height="80" rx="14" fill="#192334"/>
  <circle cx="260" cy="220" r="60" fill="#2AFAC3" fill-opacity="0.8"/>
  <rect x="180" y="305" width="160" height="18" rx="9" fill="#CAFFF3" fill-opacity="0.75"/>
  <rect x="160" y="344" width="200" height="14" rx="7" fill="#CAFFF3" fill-opacity="0.45"/>
  <rect x="160" y="376" width="220" height="14" rx="7" fill="#CAFFF3" fill-opacity="0.35"/>
  <text x="150" y="540" fill="#E8FFF8" font-family="Pretendard, sans-serif" font-size="24" font-weight="700">AX Assistant</text>
</svg>

