<svg width="1200" height="700" viewBox="0 0 1200 700" fill="none" xmlns="http://www.w3.org/2000/svg">
  <rect width="1200" height="700" rx="34" fill="#0B1018"/>
  <rect x="65" y="65" width="1070" height="570" rx="24" fill="#141D2B" stroke="#2AFAC3" stroke-opacity="0.33"/>
  <rect x="110" y="120" width="980" height="140" rx="20" fill="#0E1420"/>
  <rect x="110" y="290" width="470" height="290" rx="20" fill="#0E1420"/>
  <rect x="620" y="290" width="470" height="290" rx="20" fill="#0E1420"/>
  <rect x="145" y="160" width="350" height="22" rx="11" fill="#2AFAC3"/>
  <rect x="145" y="204" width="620" height="14" rx="7" fill="#D2FFF5" fill-opacity="0.6"/>
  <circle cx="890" cy="192" r="42" fill="#2AFAC3" fill-opacity="0.8"/>
  <path d="M860 385H540C515 385 495 365 495 340V335C495 310 515 290 540 290H860C885 290 905 310 905 335V340C905 365 885 385 860 385Z" fill="#182435"/>
  <rect x="165" y="335" width="340" height="14" rx="7" fill="#BFFFF0" fill-opacity="0.65"/>
  <rect x="165" y="368" width="300" height="14" rx="7" fill="#BFFFF0" fill-opacity="0.5"/>
  <rect x="165" y="401" width="250" height="14" rx="7" fill="#BFFFF0" fill-opacity="0.4"/>
  <rect x="660" y="450" width="380" height="90" rx="16" fill="#192436"/>
  <text x="695" y="504" fill="#ECFFF9" font-family="Pretendard, sans-serif" font-size="24" font-weight="700">Group Challenge</text>
</svg>

